<?xml version="1.0" standalone="no"?>
<!DOCTYPE svg PUBLIC "-//W3C//DTD SVG 20010904//EN"
 "http://www.w3.org/TR/2001/REC-SVG-20010904/DTD/svg10.dtd">
<svg version="1.0" xmlns="http://www.w3.org/2000/svg"
 width="300.000000pt" height="246.000000pt" viewBox="0 0 300.000000 246.000000"
 preserveAspectRatio="xMidYMid meet">
<metadata>
Created by potrace 1.10, written by Peter Selinger 2001-2011
</metadata>
<g transform="translate(0.000000,246.000000) scale(0.100000,-0.100000)"
fill="#000000" stroke="none">
<path d="M1495 1959 c-27 -10 -126 -44 -218 -76 l-168 -58 -2 -157 -2 -158
158 -51 157 -50 0 -106 c0 -96 1 -105 18 -98 9 4 100 34 202 67 102 33 200 65
218 71 l32 10 0 157 0 158 -160 53 -160 53 0 103 c0 115 4 111 -75 82z m50
-98 c1 -59 6 -84 18 -96 15 -14 17 -43 17 -215 l0 -199 -77 27 c-43 15 -77 33
-76 39 2 7 -61 33 -145 60 l-147 49 0 144 0 144 25 7 c106 31 170 52 265 87
61 22 112 38 114 36 2 -2 5 -40 6 -83z m299 -206 c22 -15 23 -21 24 -149 1
-117 -1 -135 -16 -139 -9 -3 -66 -23 -127 -45 -166 -60 -155 -58 -156 -25 l-1
28 -7 -29 c-6 -28 -14 -34 -96 -59 -19 -6 -20 -2 -20 64 0 70 0 70 25 65 14
-3 40 -8 58 -12 17 -3 32 -11 32 -16 0 -6 6 -5 15 2 12 10 15 47 15 209 l0
197 115 -38 c64 -21 126 -45 139 -53z"/>
<path d="M920 1820 c-8 -4 -113 -40 -232 -80 l-218 -73 0 -157 0 -157 193 -62
c105 -34 210 -68 231 -76 22 -8 41 -13 43 -11 2 1 2 143 1 314 -3 273 -5 310
-18 302z m-1 -310 c1 -154 1 -280 -2 -280 -7 0 -131 40 -152 49 -11 5 -72 26
-135 46 -63 20 -119 41 -124 45 -5 5 -8 69 -7 142 1 108 4 135 17 145 9 6 88
35 177 63 89 28 171 55 182 60 11 5 25 9 31 9 7 1 11 -87 13 -279z"/>
<path d="M2050 1509 c0 -292 1 -311 18 -304 9 4 28 11 42 15 14 5 112 36 218
71 l192 63 0 156 0 157 -228 76 c-125 43 -231 77 -235 77 -4 0 -7 -140 -7
-311z m232 211 c99 -33 186 -60 194 -60 11 0 14 -23 15 -105 1 -58 2 -120 3
-137 1 -36 -23 -68 -51 -68 -10 0 -84 -23 -166 -50 -81 -27 -159 -51 -173 -52
l-25 -3 0 265 c0 146 1 266 1 268 1 7 38 -4 202 -58z"/>
<path d="M373 995 c-21 -9 -35 -23 -39 -41 -11 -43 4 -59 91 -96 39 -17 44
-44 10 -60 -21 -9 -32 -8 -59 5 -29 13 -36 14 -46 2 -9 -11 -6 -17 14 -30 52
-35 140 -16 153 33 10 41 -12 69 -68 89 -28 10 -54 24 -56 31 -9 21 19 44 46
39 56 -12 64 -12 68 0 10 27 -70 47 -114 28z"/>
<path d="M660 980 c0 -17 7 -20 41 -20 l40 0 -3 -100 c-3 -99 -3 -100 20 -100
24 0 24 1 20 100 l-3 100 38 0 c30 0 37 4 37 20 0 19 -7 20 -95 20 -88 0 -95
-1 -95 -20z"/>
<path d="M1071 978 c-5 -13 -27 -67 -49 -120 l-40 -98 24 0 c17 0 25 7 30 25
6 23 11 25 58 25 47 0 54 -3 64 -25 7 -14 20 -25 31 -25 22 0 22 0 -44 168
-31 77 -57 94 -74 50z m52 -90 l16 -48 -40 0 c-44 0 -44 -3 -16 77 13 39 19
34 40 -29z"/>
<path d="M1390 881 c0 -114 1 -121 20 -121 15 0 20 7 20 25 0 21 5 25 29 25
20 0 34 -8 45 -25 10 -16 26 -25 42 -25 l25 0 -20 29 c-25 35 -26 45 -6 61 9
8 15 30 15 60 0 65 -22 83 -106 88 l-64 4 0 -121z m118 66 c6 -5 12 -24 12
-43 0 -37 -21 -54 -64 -54 -25 0 -26 3 -26 53 0 30 3 57 6 60 8 8 54 -2 72
-16z"/>
<path d="M1734 980 c0 -16 7 -20 38 -20 l38 0 0 -100 c0 -93 1 -100 20 -100
19 0 20 7 20 100 l0 100 35 0 c28 0 35 4 35 20 0 19 -7 20 -93 20 -86 0 -93
-1 -93 -20z"/>
<path d="M2102 905 c3 -82 7 -98 27 -119 31 -33 71 -41 114 -22 49 20 57 41
57 145 0 84 -1 91 -20 91 -18 0 -20 -7 -20 -83 0 -92 -15 -127 -54 -127 -45 0
-60 32 -57 125 l2 85 -27 0 -26 0 4 -95z"/>
<path d="M2500 881 c0 -114 1 -121 20 -121 17 0 20 7 20 39 l0 38 51 5 c63 6
84 26 84 78 0 58 -21 74 -105 78 l-70 4 0 -121z m128 66 c13 -13 13 -21 4 -42
-10 -21 -18 -25 -52 -25 -40 0 -40 0 -40 38 0 21 3 42 6 45 11 11 65 0 82 -16z"/>
<path d="M875 623 c4 -10 16 -43 27 -73 11 -30 24 -59 28 -63 4 -4 21 27 39
69 17 43 29 80 26 82 -4 4 -25 -39 -54 -113 -6 -15 -12 -6 -32 48 -13 37 -28
67 -32 67 -5 0 -6 -8 -2 -17z"/>
<path d="M1090 560 c0 -47 4 -80 10 -80 6 0 10 33 10 80 0 47 -4 80 -10 80 -6
0 -10 -33 -10 -80z"/>
<path d="M1220 561 l0 -78 45 1 c57 3 72 16 17 16 l-42 0 0 70 c0 40 -4 70
-10 70 -6 0 -10 -33 -10 -79z"/>
<path d="M1410 564 l0 -79 45 0 c25 0 45 3 45 7 0 5 -18 8 -41 8 l-40 0 2 65
c1 36 -1 68 -4 72 -4 3 -7 -29 -7 -73z"/>
<path d="M1627 598 c-8 -24 -22 -60 -31 -80 -9 -21 -12 -38 -7 -38 5 0 13 9
16 20 5 16 15 20 47 20 31 0 41 -4 45 -20 3 -11 9 -20 14 -20 12 0 12 4 -10
52 -11 24 -25 58 -31 76 -7 17 -16 32 -20 32 -5 0 -15 -19 -23 -42z m41 -21
c16 -44 16 -42 -18 -42 -16 0 -30 2 -30 4 0 12 25 71 30 71 3 0 11 -15 18 -33z"/>
<path d="M1822 620 c-33 -31 -38 -67 -15 -98 17 -22 28 -27 64 -27 42 0 44 2
46 30 2 28 1 28 -5 5 -16 -53 -102 -28 -102 29 0 32 8 44 38 60 16 9 27 9 43
1 24 -13 41 -4 19 10 -25 16 -65 11 -88 -10z"/>
<path d="M2022 563 l3 -77 53 -2 c28 -1 52 2 52 7 0 5 -20 9 -45 9 -44 0 -45
1 -45 31 0 30 1 31 35 25 22 -4 35 -3 35 4 0 5 -16 10 -35 10 -31 0 -35 3 -35
25 0 23 4 25 46 25 27 0 43 4 39 10 -3 6 -29 10 -56 10 l-50 0 3 -77z"/>
</g>
</svg>
